<mxfile host="app.diagrams.net" agent="Mozilla/5.0 (Windows NT 10.0; Win64; x64) AppleWebKit/537.36 (KHTML, like Gecko) Chrome/130.0.0.0 Safari/537.36 Edg/130.0.0.0" version="24.9.0">
  <diagram name="Page-1" id="EunDmiL9Vqtawfxju3xm">
    <mxGraphModel dx="1026" dy="1603" grid="1" gridSize="10" guides="1" tooltips="1" connect="1" arrows="1" fold="1" page="1" pageScale="1" pageWidth="850" pageHeight="1100" math="0" shadow="0">
      <root>
        <mxCell id="0" />
        <mxCell id="1" parent="0" />
        <mxCell id="ZmprK2YtAG8w-SDTb5-P-1" value="" style="verticalLabelPosition=bottom;verticalAlign=top;html=1;shape=mxgraph.basic.diag_stripe;dx=10;rotation=30;" vertex="1" parent="1">
          <mxGeometry x="130" y="-536" width="100" height="60" as="geometry" />
        </mxCell>
        <mxCell id="ZmprK2YtAG8w-SDTb5-P-2" value="" style="verticalLabelPosition=bottom;verticalAlign=top;html=1;shape=mxgraph.basic.diag_stripe;dx=10;rotation=30;" vertex="1" parent="1">
          <mxGeometry x="132" y="-492" width="100" height="60" as="geometry" />
        </mxCell>
        <mxCell id="ZmprK2YtAG8w-SDTb5-P-3" value="" style="verticalLabelPosition=bottom;verticalAlign=top;html=1;shape=mxgraph.basic.diag_stripe;dx=10;rotation=30;" vertex="1" parent="1">
          <mxGeometry x="140" y="-375" width="100" height="60" as="geometry" />
        </mxCell>
        <mxCell id="ZmprK2YtAG8w-SDTb5-P-4" value="" style="verticalLabelPosition=bottom;verticalAlign=top;html=1;shape=mxgraph.basic.diag_stripe;dx=10;rotation=30;" vertex="1" parent="1">
          <mxGeometry x="142" y="-305" width="100" height="60" as="geometry" />
        </mxCell>
        <mxCell id="ZmprK2YtAG8w-SDTb5-P-5" value="TOP" style="text;html=1;align=center;verticalAlign=middle;resizable=0;points=[];autosize=1;strokeColor=none;fillColor=none;" vertex="1" parent="1">
          <mxGeometry x="255" y="-522" width="50" height="30" as="geometry" />
        </mxCell>
        <mxCell id="ZmprK2YtAG8w-SDTb5-P-6" value="T10" style="text;html=1;align=center;verticalAlign=middle;resizable=0;points=[];autosize=1;strokeColor=none;fillColor=none;" vertex="1" parent="1">
          <mxGeometry x="260" y="-472" width="40" height="30" as="geometry" />
        </mxCell>
        <mxCell id="ZmprK2YtAG8w-SDTb5-P-7" value="T17" style="text;html=1;align=center;verticalAlign=middle;resizable=0;points=[];autosize=1;strokeColor=none;fillColor=none;" vertex="1" parent="1">
          <mxGeometry x="273" y="-358" width="40" height="30" as="geometry" />
        </mxCell>
        <mxCell id="ZmprK2YtAG8w-SDTb5-P-8" value="BOTTOM" style="text;html=1;align=center;verticalAlign=middle;resizable=0;points=[];autosize=1;strokeColor=none;fillColor=none;" vertex="1" parent="1">
          <mxGeometry x="260" y="-284" width="70" height="30" as="geometry" />
        </mxCell>
        <mxCell id="ZmprK2YtAG8w-SDTb5-P-10" value="" style="verticalLabelPosition=bottom;verticalAlign=top;html=1;shape=mxgraph.basic.diag_stripe;dx=10;rotation=30;" vertex="1" parent="1">
          <mxGeometry x="137" y="-394" width="100" height="60" as="geometry" />
        </mxCell>
        <mxCell id="ZmprK2YtAG8w-SDTb5-P-11" value="G16" style="text;html=1;align=center;verticalAlign=middle;resizable=0;points=[];autosize=1;strokeColor=none;fillColor=none;" vertex="1" parent="1">
          <mxGeometry x="266" y="-377" width="50" height="30" as="geometry" />
        </mxCell>
        <mxCell id="ZmprK2YtAG8w-SDTb5-P-12" value="" style="verticalLabelPosition=bottom;verticalAlign=top;html=1;shape=mxgraph.basic.diag_stripe;dx=10;rotation=30;" vertex="1" parent="1">
          <mxGeometry x="142" y="-340" width="100" height="60" as="geometry" />
        </mxCell>
        <mxCell id="ZmprK2YtAG8w-SDTb5-P-13" value="T19" style="text;html=1;align=center;verticalAlign=middle;resizable=0;points=[];autosize=1;strokeColor=none;fillColor=none;" vertex="1" parent="1">
          <mxGeometry x="275" y="-323" width="40" height="30" as="geometry" />
        </mxCell>
        <mxCell id="ZmprK2YtAG8w-SDTb5-P-14" value="" style="verticalLabelPosition=bottom;verticalAlign=top;html=1;shape=mxgraph.basic.diag_stripe;dx=10;rotation=30;" vertex="1" parent="1">
          <mxGeometry x="142" y="-358" width="100" height="60" as="geometry" />
        </mxCell>
        <mxCell id="ZmprK2YtAG8w-SDTb5-P-15" value="G18" style="text;html=1;align=center;verticalAlign=middle;resizable=0;points=[];autosize=1;strokeColor=none;fillColor=none;" vertex="1" parent="1">
          <mxGeometry x="268" y="-340" width="50" height="30" as="geometry" />
        </mxCell>
        <mxCell id="ZmprK2YtAG8w-SDTb5-P-16" value="" style="endArrow=none;html=1;rounded=0;" edge="1" parent="1">
          <mxGeometry width="50" height="50" relative="1" as="geometry">
            <mxPoint x="20" y="-359" as="sourcePoint" />
            <mxPoint x="50" y="-359" as="targetPoint" />
          </mxGeometry>
        </mxCell>
        <mxCell id="ZmprK2YtAG8w-SDTb5-P-17" value="" style="endArrow=none;html=1;rounded=0;" edge="1" parent="1">
          <mxGeometry width="50" height="50" relative="1" as="geometry">
            <mxPoint x="20" y="-268" as="sourcePoint" />
            <mxPoint x="50" y="-268" as="targetPoint" />
          </mxGeometry>
        </mxCell>
        <mxCell id="ZmprK2YtAG8w-SDTb5-P-18" value="" style="endArrow=none;dashed=1;html=1;dashPattern=1 3;strokeWidth=2;rounded=0;" edge="1" parent="1">
          <mxGeometry width="50" height="50" relative="1" as="geometry">
            <mxPoint x="35" y="-340" as="sourcePoint" />
            <mxPoint x="35" y="-358" as="targetPoint" />
          </mxGeometry>
        </mxCell>
        <mxCell id="ZmprK2YtAG8w-SDTb5-P-19" value="" style="endArrow=none;dashed=1;html=1;dashPattern=1 3;strokeWidth=2;rounded=0;" edge="1" parent="1">
          <mxGeometry width="50" height="50" relative="1" as="geometry">
            <mxPoint x="36" y="-272" as="sourcePoint" />
            <mxPoint x="36" y="-300" as="targetPoint" />
          </mxGeometry>
        </mxCell>
        <mxCell id="ZmprK2YtAG8w-SDTb5-P-20" value="48.7mil" style="text;html=1;align=center;verticalAlign=middle;resizable=0;points=[];autosize=1;strokeColor=none;fillColor=none;" vertex="1" parent="1">
          <mxGeometry x="10" y="-335" width="60" height="30" as="geometry" />
        </mxCell>
        <mxCell id="ZmprK2YtAG8w-SDTb5-P-21" value="" style="verticalLabelPosition=bottom;verticalAlign=top;html=1;shape=mxgraph.basic.diag_stripe;dx=10;rotation=30;" vertex="1" parent="1">
          <mxGeometry x="138" y="-412" width="100" height="60" as="geometry" />
        </mxCell>
        <mxCell id="ZmprK2YtAG8w-SDTb5-P-22" value="T15" style="text;html=1;align=center;verticalAlign=middle;resizable=0;points=[];autosize=1;strokeColor=none;fillColor=none;" vertex="1" parent="1">
          <mxGeometry x="269" y="-392" width="40" height="30" as="geometry" />
        </mxCell>
        <mxCell id="ZmprK2YtAG8w-SDTb5-P-25" value="" style="shape=singleArrow;direction=south;whiteSpace=wrap;html=1;" vertex="1" parent="1">
          <mxGeometry x="340" y="-512" width="30" height="132" as="geometry" />
        </mxCell>
        <mxCell id="ZmprK2YtAG8w-SDTb5-P-26" value="" style="verticalLabelPosition=bottom;verticalAlign=top;html=1;shape=mxgraph.basic.diag_stripe;dx=10;rotation=30;" vertex="1" parent="1">
          <mxGeometry x="135" y="-477" width="100" height="60" as="geometry" />
        </mxCell>
        <mxCell id="ZmprK2YtAG8w-SDTb5-P-27" value="G11" style="text;html=1;align=center;verticalAlign=middle;resizable=0;points=[];autosize=1;strokeColor=none;fillColor=none;" vertex="1" parent="1">
          <mxGeometry x="258" y="-457" width="50" height="30" as="geometry" />
        </mxCell>
        <mxCell id="ZmprK2YtAG8w-SDTb5-P-28" value="T19 backdrill" style="text;html=1;align=center;verticalAlign=middle;resizable=0;points=[];autosize=1;strokeColor=none;fillColor=none;" vertex="1" parent="1">
          <mxGeometry x="310" y="-542" width="90" height="30" as="geometry" />
        </mxCell>
        <mxCell id="ZmprK2YtAG8w-SDTb5-P-29" value="" style="shape=singleArrow;direction=north;whiteSpace=wrap;html=1;" vertex="1" parent="1">
          <mxGeometry x="390" y="-450" width="20" height="180" as="geometry" />
        </mxCell>
        <mxCell id="ZmprK2YtAG8w-SDTb5-P-31" value="" style="endArrow=none;dashed=1;html=1;dashPattern=1 3;strokeWidth=2;rounded=0;" edge="1" parent="1">
          <mxGeometry width="50" height="50" relative="1" as="geometry">
            <mxPoint x="305" y="-377" as="sourcePoint" />
            <mxPoint x="355" y="-377" as="targetPoint" />
          </mxGeometry>
        </mxCell>
        <mxCell id="ZmprK2YtAG8w-SDTb5-P-32" value="" style="endArrow=none;dashed=1;html=1;dashPattern=1 3;strokeWidth=2;rounded=0;" edge="1" parent="1">
          <mxGeometry width="50" height="50" relative="1" as="geometry">
            <mxPoint x="305" y="-450.5" as="sourcePoint" />
            <mxPoint x="400" y="-450" as="targetPoint" />
          </mxGeometry>
        </mxCell>
        <mxCell id="ZmprK2YtAG8w-SDTb5-P-33" value="" style="verticalLabelPosition=bottom;verticalAlign=top;html=1;shape=mxgraph.basic.diag_stripe;dx=10;rotation=30;" vertex="1" parent="1">
          <mxGeometry x="139" y="-427" width="100" height="60" as="geometry" />
        </mxCell>
        <mxCell id="ZmprK2YtAG8w-SDTb5-P-34" value="G14" style="text;html=1;align=center;verticalAlign=middle;resizable=0;points=[];autosize=1;strokeColor=none;fillColor=none;" vertex="1" parent="1">
          <mxGeometry x="265" y="-407" width="50" height="30" as="geometry" />
        </mxCell>
        <mxCell id="ZmprK2YtAG8w-SDTb5-P-35" value="T10 backdrill" style="text;html=1;align=center;verticalAlign=middle;resizable=0;points=[];autosize=1;strokeColor=none;fillColor=none;" vertex="1" parent="1">
          <mxGeometry x="355" y="-254" width="90" height="30" as="geometry" />
        </mxCell>
        <mxCell id="ZmprK2YtAG8w-SDTb5-P-36" value="Normal case" style="text;html=1;align=center;verticalAlign=middle;resizable=0;points=[];autosize=1;strokeColor=none;fillColor=none;" vertex="1" parent="1">
          <mxGeometry x="125" y="-202" width="90" height="30" as="geometry" />
        </mxCell>
        <mxCell id="ZmprK2YtAG8w-SDTb5-P-37" value="Worst case" style="text;html=1;align=center;verticalAlign=middle;resizable=0;points=[];autosize=1;strokeColor=none;fillColor=none;" vertex="1" parent="1">
          <mxGeometry x="590" y="-212" width="80" height="30" as="geometry" />
        </mxCell>
      </root>
    </mxGraphModel>
  </diagram>
</mxfile>
